# xmcd
#
# Track frame offsets: 
#        150
#        11917
#        22070
#        32097
#        44077
#        57000
#        69825
#        84267
#        98237
#        110737
#        123717
#        136590
#
# Disc length: 1985 seconds
#
# Revision: 6
# Processed by: cddbd v1.5.1PL0 Copyright (c) Steve Scherf et al.
# Submitted via: ExactAudioCopy v0.95a5
#
DISCID=a007bf0c
DTITLE=Various Artist - The Blues, Vol. 1 [Chess - MCA]
DYEAR=1990
DGENRE=Blues
TTITLE0=Sonny Boy Williamson - Don't Start Me To Talkin'
TTITLE1=Buddy Guy - First Time I Met The Blues
TTITLE2=Chuck Berry - Worried Life Blues
TTITLE3=Little Walter - My Babe
TTITLE4=John Lee Hooker - Walkin' The Boogie
TTITLE5=Muddy Waters - Hoochie Coochie Man
TTITLE6=Lowell Fulson - Reconsider Baby
TTITLE7=Howlin' Wolf - Smokestack Lightning
TTITLE8=Little Walter - Juke
TTITLE9=Jimmy Witherspoon - When The Lights Go Out
TTITLE10=Muddy Waters - Just Make Love To Me
TTITLE11=Howlin' Wolf - Spoonful
EXTD=
EXTT0=
EXTT1=
EXTT2=
EXTT3=
EXTT4=
EXTT5=
EXTT6=
EXTT7=
EXTT8=
EXTT9=
EXTT10=
EXTT11=
PLAYORDER=
